<?xml version="1.0" encoding="utf-8"?>
<!-- Generator: Adobe Illustrator 23.0.6, SVG Export Plug-In . SVG Version: 6.00 Build 0)  -->
<svg version="1.1" xmlns="http://www.w3.org/2000/svg" xmlns:xlink="http://www.w3.org/1999/xlink" x="0px" y="0px"
	 viewBox="0 0 60 60" style="enable-background:new 0 0 60 60;" xml:space="preserve">
<style type="text/css">
	.st0{display:none;}
	.st1{display:inline;}
	.st2{fill:url(#SVGID_1_);}
	.st3{fill:#FFFFFF;}
	.st4{fill:#DF00A2;}
	.st5{fill:#17D6FF;}
	.st6{fill:#FF7200;}
</style>
<g id="icon_back" class="st0">
	<g class="st1">
		<radialGradient id="SVGID_1_" cx="30" cy="30" r="27.5" gradientUnits="userSpaceOnUse">
			<stop  offset="0" style="stop-color:#4D4D4D"/>
			<stop  offset="1" style="stop-color:#000000"/>
		</radialGradient>
		<circle class="st2" cx="30" cy="30" r="27.5"/>
	</g>
</g>
<g id="avatar">
	<path class="st3" d="M49.12,18.12c1.17-1.17,1.17-3.07,0-4.24c-1.17-1.17-3.07-1.17-4.24,0C43.71,15.05,42.83,18.83,44,20
		S47.95,19.29,49.12,18.12z"/>
	<path class="st3" d="M10.33,18.12c-1.17-1.17-1.17-3.07,0-4.24s3.07-1.17,4.24,0s2.05,4.95,0.88,6.12S11.5,19.29,10.33,18.12z"/>
	<circle class="st3" cx="35.5" cy="29.5" r="0.5"/>
	<circle class="st3" cx="39.5" cy="33.5" r="0.5"/>
	<g>
		<path class="st3" d="M20.83,45.34h-0.69c-0.07,0-0.13,0.06-0.13,0.13v0.47c0,0.07,0.06,0.13,0.13,0.13h0.69
			c0.07,0,0.13-0.06,0.13-0.13v-0.47C20.96,45.4,20.91,45.34,20.83,45.34z"/>
		<circle class="st3" cx="20.49" cy="44.36" r="0.27"/>
		<path class="st3" d="M46.14,23.98c-1.03-1.68-2.44-3.09-4.12-4.12C40.05,18.64,37.77,18,35.45,18H30h-5.45
			c-2.32,0-4.59,0.64-6.57,1.86c-1.68,1.03-3.09,2.44-4.12,4.12C12.64,25.95,12,28.23,12,30.55V36v5.45c0,2.32,0.64,4.59,1.86,6.57
			c1.03,1.68,2.44,3.09,4.12,4.12c1.98,1.21,4.25,1.86,6.57,1.86H30h5.45c2.32,0,4.59-0.64,6.57-1.86c1.68-1.03,3.09-2.44,4.12-4.12
			c1.21-1.98,1.86-4.25,1.86-6.57V36v-5.45C48,28.23,47.36,25.95,46.14,23.98z M21.17,46.53h-1.36c-0.1,0-0.17-0.12-0.15-0.24
			l0.31-2.76h1.05l0.31,2.76C21.34,46.42,21.27,46.53,21.17,46.53z M23,43h-3v-1h3V43z M26,43h-2v-1h2V43z M29,43h-2v-1h2V43z
			 M29,34.46L27.46,36l-3.08-3.08L21.3,36l-1.54-1.54l3.08-3.08l-3.08-3.08l1.54-1.54l3.08,3.08l3.08-3.08L29,28.3l-3.08,3.08
			L29,34.46z M32,43h-2v-1h2V43z M35,43h-2v-1h2V43z M38,43h-2v-1h2V43z M41,43h-2v-1h2V43z M37.5,36c-2.49,0-4.5-2.01-4.5-4.5
			s2.01-4.5,4.5-4.5s4.5,2.01,4.5,4.5S39.99,36,37.5,36z"/>
	</g>
</g>
<g id="status_psn" class="st0">
	<g class="st1">
		<path class="st4" d="M30,3c14.89,0,27,12.11,27,27S44.89,57,30,57S3,44.89,3,30S15.11,3,30,3 M30,1C13.98,1,1,13.98,1,30
			s12.98,29,29,29s29-12.98,29-29S46.02,1,30,1L30,1z"/>
	</g>
</g>
<g id="status_frzn" class="st0">
	<g class="st1">
		<path class="st5" d="M30,3c14.89,0,27,12.11,27,27S44.89,57,30,57S3,44.89,3,30S15.11,3,30,3 M30,1C13.98,1,1,13.98,1,30
			s12.98,29,29,29s29-12.98,29-29S46.02,1,30,1L30,1z"/>
	</g>
</g>
<g id="status_brn" class="st0">
	<g class="st1">
		<path class="st6" d="M30,3c14.89,0,27,12.11,27,27S44.89,57,30,57S3,44.89,3,30S15.11,3,30,3 M30,1C13.98,1,1,13.98,1,30
			s12.98,29,29,29s29-12.98,29-29S46.02,1,30,1L30,1z"/>
	</g>
</g>
</svg>
